<svg width="793" height="1271" viewBox="0 0 793 1271" fill="none" xmlns="http://www.w3.org/2000/svg">
<path fill-rule="evenodd" clip-rule="evenodd" d="M0 0H793V1269.35L765.112 1218.21L737.135 1269.51L708.123 1218.21L679.11 1269.51L651.133 1218.21L623.245 1269.35L595.356 1218.21L567.38 1269.51L538.367 1218.21L509.354 1269.51L481.378 1218.21L453.489 1269.35L425.601 1218.21L397.249 1270.2H453.025H453.953H508.965H509.73H567.004H567.77H622.781H623.709H678.72H679.485H736.76H737.525L793 1270.2H0L55.4751 1270.2H56.241H113.514H114.28H169.291H170.219H225.231H225.996H283.27H284.036H339.046H339.975H395.751L367.399 1218.21L339.51 1269.35L311.622 1218.21L283.646 1269.51L254.633 1218.21L225.62 1269.51L197.644 1218.21L169.755 1269.35L141.867 1218.21L113.89 1269.51L84.8775 1218.21L55.865 1269.51L27.8886 1218.21L0 1269.35V0Z" fill="white"/>
</svg>
